<?xml version="1.0" encoding="UTF-8" standalone="no"?>
<svg
   height="24"
   viewBox="0 -960 960 960"
   width="24"
   version="1.1"
   id="svg1"
   sodipodi:docname="bold.svg"
   inkscape:version="1.3 (0e150ed6c4, 2023-07-21)"
   xmlns:inkscape="http://www.inkscape.org/namespaces/inkscape"
   xmlns:sodipodi="http://sodipodi.sourceforge.net/DTD/sodipodi-0.dtd"
   xmlns="http://www.w3.org/2000/svg"
   xmlns:svg="http://www.w3.org/2000/svg">
  <defs
     id="defs1" />
  <sodipodi:namedview
     id="namedview1"
     pagecolor="#ffffff"
     bordercolor="#000000"
     borderopacity="0.25"
     inkscape:showpageshadow="2"
     inkscape:pageopacity="0.0"
     inkscape:pagecheckerboard="0"
     inkscape:deskcolor="#d1d1d1"
     inkscape:zoom="26.5"
     inkscape:cx="12"
     inkscape:cy="11.981132"
     inkscape:window-width="1280"
     inkscape:window-height="961"
     inkscape:window-x="-8"
     inkscape:window-y="-8"
     inkscape:window-maximized="1"
     inkscape:current-layer="svg1" />
  <path
     d="M352-200q-33 0-56.5-23.5T272-280v-400q0-33 23.5-56.5T352-760h141q65 0 120 40t55 111q0 51-23 78.5T602-491q25 11 55.5 41t30.5 90q0 89-65 124.5T501-200H352Zm41-112h104q48 0 58.5-24.5T566-372q0-11-10.5-35.5T494-432H393v120Zm0-228h93q33 0 48-17t15-38q0-24-17-39t-44-15h-95v109Z"
     id="path1"
     style="fill:#f4f1ea;fill-opacity:1" />
</svg>
