<?xml version="1.0" encoding="UTF-8" standalone="no"?>
<svg
   height="24"
   viewBox="0 -960 960 960"
   width="24"
   version="1.1"
   id="svg1"
   sodipodi:docname="book.svg"
   inkscape:version="1.3 (0e150ed6c4, 2023-07-21)"
   xmlns:inkscape="http://www.inkscape.org/namespaces/inkscape"
   xmlns:sodipodi="http://sodipodi.sourceforge.net/DTD/sodipodi-0.dtd"
   xmlns="http://www.w3.org/2000/svg"
   xmlns:svg="http://www.w3.org/2000/svg">
  <defs
     id="defs1" />
  <sodipodi:namedview
     id="namedview1"
     pagecolor="#ffffff"
     bordercolor="#000000"
     borderopacity="0.25"
     inkscape:showpageshadow="2"
     inkscape:pageopacity="0.0"
     inkscape:pagecheckerboard="0"
     inkscape:deskcolor="#d1d1d1"
     inkscape:zoom="26.5"
     inkscape:cx="12"
     inkscape:cy="11.981132"
     inkscape:window-width="1280"
     inkscape:window-height="961"
     inkscape:window-x="-8"
     inkscape:window-y="-8"
     inkscape:window-maximized="1"
     inkscape:current-layer="svg1" />
  <path
     d="M260-320q47 0 91.5 10.5T440-278v-394q-41-24-87-36t-93-12q-36 0-71.5 7T120-692v396q35-12 69.5-18t70.5-6Zm260 42q44-21 88.5-31.5T700-320q36 0 70.5 6t69.5 18v-396q-33-14-68.5-21t-71.5-7q-47 0-93 12t-87 36v394Zm-40 97q-14 0-26.5-3.5T430-194q-39-23-82-34.5T260-240q-42 0-82.5 11T100-198q-21 11-40.5-1T40-234v-482q0-11 5.5-21T62-752q46-24 96-36t102-12q58 0 113.5 15T480-740q51-30 106.5-45T700-800q52 0 102 12t96 36q11 5 16.5 15t5.5 21v482q0 23-19.5 35t-40.5 1q-37-20-77.5-31T700-240q-45 0-88 11.5T530-194q-11 6-23.5 9.5T480-181ZM280-494Zm280-115q0-9 6.5-18.5T581-640q29-10 58-15t61-5q20 0 39.5 2.5T778-651q9 2 15.5 10t6.5 18q0 17-11 25t-28 4q-14-3-29.5-4.5T700-600q-26 0-51 5t-48 13q-18 7-29.5-1T560-609Zm0 220q0-9 6.5-18.5T581-420q29-10 58-15t61-5q20 0 39.5 2.5T778-431q9 2 15.5 10t6.5 18q0 17-11 25t-28 4q-14-3-29.5-4.5T700-380q-26 0-51 4.5T601-363q-18 7-29.5-.5T560-389Zm0-110q0-9 6.5-18.5T581-530q29-10 58-15t61-5q20 0 39.5 2.5T778-541q9 2 15.5 10t6.5 18q0 17-11 25t-28 4q-14-3-29.5-4.5T700-490q-26 0-51 5t-48 13q-18 7-29.5-1T560-499Z"
     id="path1"
     style="fill:#f4f1ea;fill-opacity:1" />
</svg>
