<?xml version="1.0" encoding="UTF-8" standalone="no"?>
<svg
   height="24"
   viewBox="0 -960 960 960"
   width="24"
   version="1.1"
   id="svg1"
   sodipodi:docname="link.svg"
   inkscape:version="1.3 (0e150ed6c4, 2023-07-21)"
   xmlns:inkscape="http://www.inkscape.org/namespaces/inkscape"
   xmlns:sodipodi="http://sodipodi.sourceforge.net/DTD/sodipodi-0.dtd"
   xmlns="http://www.w3.org/2000/svg"
   xmlns:svg="http://www.w3.org/2000/svg">
  <defs
     id="defs1" />
  <sodipodi:namedview
     id="namedview1"
     pagecolor="#ffffff"
     bordercolor="#000000"
     borderopacity="0.25"
     inkscape:showpageshadow="2"
     inkscape:pageopacity="0.0"
     inkscape:pagecheckerboard="0"
     inkscape:deskcolor="#d1d1d1"
     inkscape:zoom="26.5"
     inkscape:cx="12"
     inkscape:cy="12.056604"
     inkscape:window-width="1280"
     inkscape:window-height="961"
     inkscape:window-x="-8"
     inkscape:window-y="-8"
     inkscape:window-maximized="1"
     inkscape:current-layer="svg1" />
  <path
     d="M280-280q-83 0-141.5-58.5T80-480q0-83 58.5-141.5T280-680h120q17 0 28.5 11.5T440-640q0 17-11.5 28.5T400-600H280q-50 0-85 35t-35 85q0 50 35 85t85 35h120q17 0 28.5 11.5T440-320q0 17-11.5 28.5T400-280H280Zm80-160q-17 0-28.5-11.5T320-480q0-17 11.5-28.5T360-520h240q17 0 28.5 11.5T640-480q0 17-11.5 28.5T600-440H360Zm200 160q-17 0-28.5-11.5T520-320q0-17 11.5-28.5T560-360h120q50 0 85-35t35-85q0-50-35-85t-85-35H560q-17 0-28.5-11.5T520-640q0-17 11.5-28.5T560-680h120q83 0 141.5 58.5T880-480q0 83-58.5 141.5T680-280H560Z"
     id="path1"
     style="fill:#f4f1ea;fill-opacity:1" />
</svg>
