<?xml version="1.0" encoding="UTF-8" standalone="no"?>
<svg
   height="24"
   viewBox="0 -960 960 960"
   width="24"
   version="1.1"
   id="svg1"
   sodipodi:docname="strikethrough.svg"
   inkscape:version="1.3 (0e150ed6c4, 2023-07-21)"
   xmlns:inkscape="http://www.inkscape.org/namespaces/inkscape"
   xmlns:sodipodi="http://sodipodi.sourceforge.net/DTD/sodipodi-0.dtd"
   xmlns="http://www.w3.org/2000/svg"
   xmlns:svg="http://www.w3.org/2000/svg">
  <defs
     id="defs1" />
  <sodipodi:namedview
     id="namedview1"
     pagecolor="#ffffff"
     bordercolor="#000000"
     borderopacity="0.25"
     inkscape:showpageshadow="2"
     inkscape:pageopacity="0.0"
     inkscape:pagecheckerboard="0"
     inkscape:deskcolor="#d1d1d1"
     inkscape:zoom="22.166667"
     inkscape:cx="12"
     inkscape:cy="11.977444"
     inkscape:window-width="1280"
     inkscape:window-height="961"
     inkscape:window-x="-8"
     inkscape:window-y="-8"
     inkscape:window-maximized="1"
     inkscape:current-layer="svg1" />
  <path
     d="M120-400q-17 0-28.5-11.5T80-440q0-17 11.5-28.5T120-480h720q17 0 28.5 11.5T880-440q0 17-11.5 28.5T840-400H120Zm300-160v-120H260q-25 0-42.5-17.5T200-740q0-25 17.5-42.5T260-800h440q25 0 42.5 17.5T760-740q0 25-17.5 42.5T700-680H540v120H420Zm0 240h120v100q0 25-17.5 42.5T480-160q-25 0-42.5-17.5T420-220v-100Z"
     id="path1"
     style="fill:#f4f1ea;fill-opacity:1" />
</svg>
