<?xml version="1.0" encoding="UTF-8" standalone="no"?>
<svg
   height="24"
   viewBox="0 -960 960 960"
   width="24"
   version="1.1"
   id="svg1"
   sodipodi:docname="underlined.svg"
   inkscape:version="1.3 (0e150ed6c4, 2023-07-21)"
   xmlns:inkscape="http://www.inkscape.org/namespaces/inkscape"
   xmlns:sodipodi="http://sodipodi.sourceforge.net/DTD/sodipodi-0.dtd"
   xmlns="http://www.w3.org/2000/svg"
   xmlns:svg="http://www.w3.org/2000/svg">
  <defs
     id="defs1" />
  <sodipodi:namedview
     id="namedview1"
     pagecolor="#ffffff"
     bordercolor="#000000"
     borderopacity="0.25"
     inkscape:showpageshadow="2"
     inkscape:pageopacity="0.0"
     inkscape:pagecheckerboard="0"
     inkscape:deskcolor="#d1d1d1"
     inkscape:zoom="29.833333"
     inkscape:cx="12"
     inkscape:cy="11.98324"
     inkscape:window-width="1280"
     inkscape:window-height="961"
     inkscape:window-x="-8"
     inkscape:window-y="-8"
     inkscape:window-maximized="1"
     inkscape:current-layer="svg1" />
  <path
     d="M240-120q-17 0-28.5-11.5T200-160q0-17 11.5-28.5T240-200h480q17 0 28.5 11.5T760-160q0 17-11.5 28.5T720-120H240Zm240-160q-101 0-157-63t-56-167v-279q0-21 15.5-36t36.5-15q21 0 36 15t15 36v285q0 56 28 91t82 35q54 0 82-35t28-91v-285q0-21 15.5-36t36.5-15q21 0 36 15t15 36v279q0 104-56 167t-157 63Z"
     id="path1"
     style="fill:#f4f1ea;fill-opacity:1" />
</svg>
